<svg enable-background="new 0 0 2834.6 2834.6" viewBox="0 0 2834.6 2834.6" xmlns="http://www.w3.org/2000/svg"><path d="m1567.3 1775.1c-224.3 0-417.5-112-504.6-273-2.7-5-11.5-3.4-11.5 2.1 0 244 231.1 441.7 516.1 441.7s516.1-197.8 516.1-441.7c0-5.5-8.8-7-11.5-2.1-87.1 161-280.2 273-504.6 273z" fill="#45818e" stroke="#45818e" stroke-miterlimit="10"/><path d="m972 1334.2 119 231.7" fill="none" stroke="#45818e" stroke-miterlimit="10"/><path d="m1046.5 1479.2 44.5 86.7" fill="none" stroke="#45818e" stroke-miterlimit="10" stroke-width="20"/><path d="m1062.9 1511.2 84.1 6.1.3-2.9-95.2-83.2c-26.7-32.3-53.4-64.6-80.1-96.9 10.7 40.5 21.4 81.1 32 121.6l12.1 125.8 2.2 1.6z" fill="#45818e" stroke="#45818e" stroke-miterlimit="10"/><path d="m1567.3 1590.3v-450.2" fill="none"/><path d="m1564.4 1590.3c-1.2-9.4-2.2-18.8-3.3-28.1l-3-28.1c-2-18.8-3.8-37.5-5.5-56.3l-2.5-28.1-2.3-28.1-2.1-28.1-1.9-28.1c-.6-9.4-1.5-18.8-2.5-28.1-1-9.4-2.2-18.8-3.1-28.1-.9-9.4-1.5-18.8-1.6-28.1-.1-9.4.4-18.8 1.3-28.1 1.7-18.8 4.5-37.5 8.6-56.3 2.1-9.4 4.5-18.8 7.4-28.1 1.5-4.7 3-9.4 4.7-14.1s3.6-9.4 5.8-14.1h5.9c2.2 4.7 4.1 9.4 5.8 14.1s3.3 9.4 4.7 14.1c2.9 9.4 5.3 18.8 7.4 28.1 4.1 18.8 6.9 37.5 8.6 56.3.8 9.4 1.3 18.8 1.3 28.1-.1 9.4-.7 18.8-1.6 28.1-.9 9.4-2.1 18.8-3.1 28.1-1 9.4-1.9 18.8-2.5 28.1l-1.9 28.1-2.1 28.1-2.3 28.1-2.5 28.1c-1.8 18.8-3.5 37.5-5.5 56.3l-3 28.1c-1.1 9.4-2.1 18.8-3.3 28.1z" fill="#f1a91e"/><path d="m1567.3 1590.3 285.3-196.5" fill="none"/><path d="m1565.7 1587.8c10.6-10.1 21.3-20 32.1-29.8 5.4-4.9 10.8-9.7 16.2-14.6l16.3-14.5 16.4-14.4 16.5-14.2 16.7-14 16.7-13.8c5.6-4.6 11-9.4 16.4-14.4 5.4-4.9 10.7-10 16.1-14.8s11-9.4 16.9-13.6c5.9-4.1 12.1-7.9 18.5-11.3 12.9-6.8 26.3-12.7 40.6-17.4 7.1-2.4 14.4-4.5 22-6.2 3.8-.8 7.6-1.6 11.6-2.2 3.9-.6 8-1.2 12.2-1.4l3.3 4.9c-1.7 3.9-3.6 7.4-5.6 10.9s-4.1 6.8-6.2 10c-4.3 6.5-8.9 12.6-13.6 18.4-9.5 11.6-19.8 22.1-30.8 31.7-5.5 4.8-11.1 9.3-17.1 13.3-6 4.1-12.3 7.7-18.7 11-6.5 3.3-13.1 6.5-19.6 9.7-6.5 3.3-13 6.6-19.3 10.2l-18.9 10.7-19 10.6-19.2 10.3-19.3 10.2-19.3 10.1c-6.5 3.3-12.9 6.7-19.4 9.9-13 6.6-26.1 13.1-39.2 19.4z" fill="#f1a91e"/><g stroke="#45818e" stroke-miterlimit="10"><path d="m1554.4 937.2v85" fill="none" stroke-linecap="round" stroke-width="21"/><path d="m1795.9 982.2-28.6 80" fill="none" stroke-linecap="round" stroke-width="21"/><path d="m1943.9 1073.6-54.2 65.5" fill="none" stroke-linecap="round" stroke-width="21"/><path d="m2055.2 1190.1-68.2 50.7" fill="none" stroke-linecap="round" stroke-width="20"/><path d="m2123.7 1324.1-80.5 27.4" fill="none" stroke-linecap="round" stroke-width="20"/><path d="m1582.5 937.2 1.8 85" fill="none" stroke-linecap="round" stroke-width="21"/></g></svg>